# Blender v2.79 (sub 0) OBJ File: ''
# www.blender.org
mtllib untitled.mtl
o Cube
v 20.000000 0.000000 -6.000000
v 20.000000 0.000000 6.000000
v -20.000002 0.000000 5.999999
v -19.999992 0.000000 -6.000002
v 20.000010 18.000000 -5.999997
v 19.999987 18.000000 6.000004
v -20.000008 18.000000 5.999998
v -19.999998 18.000000 -6.000000
v 5.428194 0.000000 -6.000001
v 5.428191 0.000000 6.000000
v 5.428197 18.000000 -5.999998
v 5.428180 18.000000 6.000001
v -1.869959 0.000000 -6.000001
v -1.869964 0.000000 5.999999
v -1.869958 18.000000 -5.999999
v -1.869974 18.000000 6.000001
v 5.080385 4.374347 -6.000001
v 5.080381 4.374347 6.000000
v 5.080388 18.000000 -5.999998
v 5.080371 18.000000 6.000001
v -1.496239 4.374347 -6.000001
v -1.496243 4.374347 5.999999
v -1.496237 18.000000 -5.999999
v -1.496253 18.000000 6.000001
vt 0.999800 0.083433
vt 0.666866 0.000200
vt 0.666866 0.083433
vt 0.000200 0.000200
vt 0.333134 0.083433
vt 0.000200 0.083433
vt 0.333533 0.333533
vt 0.666467 0.666467
vt 0.333533 0.666467
vt 0.583233 0.000200
vt 0.666467 0.333134
vt 0.583233 0.333134
vt 0.333134 0.666866
vt 0.000200 0.999800
vt 0.333134 0.999800
vt 0.333134 0.416767
vt 0.000200 0.333533
vt 0.000200 0.416767
vt 0.333134 0.666467
vt 0.000200 0.500000
vt 0.000200 0.666467
vt 0.333533 0.000200
vt 0.500000 0.333134
vt 0.333533 0.333134
vt 0.000200 0.166667
vt 0.333134 0.333134
vt 0.000200 0.333134
vt 0.666866 0.333133
vt 0.999800 0.166667
vt 0.666866 0.166667
vt 0.333134 0.437575
vt 0.000200 0.437575
vt 0.562425 0.333134
vt 0.333134 0.104242
vt 0.000200 0.104242
vt 0.999800 0.104242
vt 0.666866 0.104242
vt 0.666866 0.125050
vt 0.000200 0.125050
vt 0.333134 0.166667
vt 0.500000 0.000200
vt 0.541617 0.333134
vt 0.333134 0.458383
vt 0.000200 0.458383
vt 0.999800 0.125050
vt 0.333134 0.125050
vt 0.541617 0.000200
vt 0.999800 0.000200
vt 0.333134 0.000200
vt 0.666467 0.333533
vt 0.666467 0.000200
vt 0.000200 0.666866
vt 0.333134 0.333533
vt 0.333134 0.500000
vt 0.999800 0.333134
vt 0.562425 0.000200
vn 0.0000 -1.0000 0.0000
vn 0.0000 1.0000 -0.0000
vn 1.0000 -0.0000 0.0000
vn 0.0000 -0.0000 1.0000
vn -1.0000 -0.0000 -0.0000
vn 0.0000 0.0000 -1.0000
vn 0.9964 -0.0851 0.0000
vn -0.9969 -0.0793 -0.0000
usemtl Material
s off
f 14/1/1 4/2/1 13/3/1
f 8/4/2 16/5/2 15/6/2
f 5/7/3 2/8/3 1/9/3
f 16/10/4 3/11/4 14/12/4
f 3/13/5 8/14/5 4/15/5
f 13/16/6 8/17/6 15/18/6
f 1/19/6 11/20/6 5/21/6
f 6/22/4 10/23/4 2/24/4
f 11/25/2 6/26/2 5/27/2
f 1/28/1 10/29/1 9/30/1
f 21/31/6 15/18/6 23/32/6
f 22/33/4 16/10/4 14/12/4
f 15/6/2 24/34/2 23/35/2
f 22/36/7 13/3/7 21/37/7
f 10/29/8 17/38/8 9/30/8
f 19/39/2 12/40/2 11/25/2
f 12/41/4 18/42/4 10/23/4
f 11/20/6 17/43/6 19/44/6
f 18/45/1 21/37/1 17/38/1
f 23/35/2 20/46/2 19/39/2
f 20/47/4 22/33/4 18/42/4
f 17/43/6 23/32/6 19/44/6
f 14/1/1 3/48/1 4/2/1
f 8/4/2 7/49/2 16/5/2
f 5/7/3 6/50/3 2/8/3
f 16/10/4 7/51/4 3/11/4
f 3/13/5 7/52/5 8/14/5
f 13/16/6 4/53/6 8/17/6
f 1/19/6 9/54/6 11/20/6
f 6/22/4 12/41/4 10/23/4
f 11/25/2 12/40/2 6/26/2
f 1/28/1 2/55/1 10/29/1
f 21/31/6 13/16/6 15/18/6
f 22/33/4 24/56/4 16/10/4
f 15/6/2 16/5/2 24/34/2
f 22/36/7 14/1/7 13/3/7
f 10/29/8 18/45/8 17/38/8
f 19/39/2 20/46/2 12/40/2
f 12/41/4 20/47/4 18/42/4
f 11/20/6 9/54/6 17/43/6
f 18/45/1 22/36/1 21/37/1
f 23/35/2 24/34/2 20/46/2
f 20/47/4 24/56/4 22/33/4
f 17/43/6 21/31/6 23/32/6
